<svg width="252" height="37" viewBox="0 0 252 37" fill="none" xmlns="http://www.w3.org/2000/svg">
<path d="M57.768 26V7.8H65.074C66.9633 7.8 68.402 8.242 69.39 9.126C70.3953 9.99267 70.898 11.1107 70.898 12.48C70.898 13.624 70.586 14.5427 69.962 15.236C69.3553 15.912 68.61 16.3713 67.726 16.614C68.766 16.822 69.624 17.342 70.3 18.174C70.976 18.9887 71.314 19.942 71.314 21.034C71.314 22.4727 70.794 23.66 69.754 24.596C68.714 25.532 67.2407 26 65.334 26H57.768ZM61.096 15.444H64.58C65.516 15.444 66.2353 15.2273 66.738 14.794C67.2407 14.3607 67.492 13.7453 67.492 12.948C67.492 12.1853 67.2407 11.5873 66.738 11.154C66.2527 10.7033 65.516 10.478 64.528 10.478H61.096V15.444ZM61.096 23.296H64.814C65.802 23.296 66.5647 23.0707 67.102 22.62C67.6567 22.152 67.934 21.502 67.934 20.67C67.934 19.8207 67.648 19.1533 67.076 18.668C66.504 18.1827 65.7327 17.94 64.762 17.94H61.096V23.296ZM78.9283 26.312C77.3163 26.312 76.0683 25.8093 75.1843 24.804C74.3177 23.7987 73.8843 22.3253 73.8843 20.384V13.104H77.1863V20.072C77.1863 21.1813 77.4117 22.0307 77.8623 22.62C78.313 23.2093 79.0237 23.504 79.9943 23.504C80.913 23.504 81.667 23.1747 82.2563 22.516C82.863 21.8573 83.1663 20.9387 83.1663 19.76V13.104H86.4943V26H83.5563L83.2963 23.816C82.8977 24.5787 82.317 25.1853 81.5543 25.636C80.809 26.0867 79.9337 26.312 78.9283 26.312ZM95.8387 26.312C94.6254 26.312 93.542 26.0173 92.5887 25.428C91.6354 24.8387 90.8814 24.0327 90.3267 23.01C89.772 21.9873 89.4947 20.826 89.4947 19.526C89.4947 18.226 89.772 17.0733 90.3267 16.068C90.8814 15.0453 91.6354 14.248 92.5887 13.676C93.542 13.0867 94.6254 12.792 95.8387 12.792C96.8094 12.792 97.6587 12.974 98.3867 13.338C99.1147 13.702 99.704 14.2133 100.155 14.872V7.28H103.483V26H100.519L100.155 24.154C99.7387 24.726 99.184 25.2287 98.4907 25.662C97.8147 26.0953 96.9307 26.312 95.8387 26.312ZM96.5407 23.4C97.6154 23.4 98.4907 23.0447 99.1667 22.334C99.86 21.606 100.207 20.6787 100.207 19.552C100.207 18.4253 99.86 17.5067 99.1667 16.796C98.4907 16.068 97.6154 15.704 96.5407 15.704C95.4834 15.704 94.608 16.0593 93.9147 16.77C93.2214 17.4807 92.8747 18.3993 92.8747 19.526C92.8747 20.6527 93.2214 21.58 93.9147 22.308C94.608 23.036 95.4834 23.4 96.5407 23.4ZM112.8 26.312C111.586 26.312 110.503 26.0173 109.55 25.428C108.596 24.8387 107.842 24.0327 107.288 23.01C106.733 21.9873 106.456 20.826 106.456 19.526C106.456 18.226 106.733 17.0733 107.288 16.068C107.842 15.0453 108.596 14.248 109.55 13.676C110.503 13.0867 111.586 12.792 112.8 12.792C113.77 12.792 114.62 12.974 115.348 13.338C116.076 13.702 116.665 14.2133 117.116 14.872V7.28H120.444V26H117.48L117.116 24.154C116.7 24.726 116.145 25.2287 115.452 25.662C114.776 26.0953 113.892 26.312 112.8 26.312ZM113.502 23.4C114.576 23.4 115.452 23.0447 116.128 22.334C116.821 21.606 117.168 20.6787 117.168 19.552C117.168 18.4253 116.821 17.5067 116.128 16.796C115.452 16.068 114.576 15.704 113.502 15.704C112.444 15.704 111.569 16.0593 110.876 16.77C110.182 17.4807 109.836 18.3993 109.836 19.526C109.836 20.6527 110.182 21.58 110.876 22.308C111.569 23.036 112.444 23.4 113.502 23.4ZM125.627 11.102C125.02 11.102 124.517 10.92 124.119 10.556C123.737 10.192 123.547 9.73267 123.547 9.178C123.547 8.62333 123.737 8.17267 124.119 7.826C124.517 7.462 125.02 7.28 125.627 7.28C126.233 7.28 126.727 7.462 127.109 7.826C127.507 8.17267 127.707 8.62333 127.707 9.178C127.707 9.73267 127.507 10.192 127.109 10.556C126.727 10.92 126.233 11.102 125.627 11.102ZM123.963 26V13.104H127.291V26H123.963ZM130.764 26V13.104H133.702L133.962 15.288C134.361 14.5253 134.933 13.9187 135.678 13.468C136.441 13.0173 137.334 12.792 138.356 12.792C139.951 12.792 141.19 13.2947 142.074 14.3C142.958 15.3053 143.4 16.7787 143.4 18.72V26H140.072V19.032C140.072 17.9227 139.847 17.0733 139.396 16.484C138.946 15.8947 138.244 15.6 137.29 15.6C136.354 15.6 135.583 15.9293 134.976 16.588C134.387 17.2467 134.092 18.1653 134.092 19.344V26H130.764ZM152.043 22.152C151.419 22.152 150.838 22.0827 150.301 21.944L149.339 22.906C149.633 23.062 150.032 23.192 150.535 23.296C151.037 23.4 151.852 23.504 152.979 23.608C154.695 23.764 155.943 24.1713 156.723 24.83C157.503 25.4887 157.893 26.3987 157.893 27.56C157.893 28.3227 157.685 29.042 157.269 29.718C156.853 30.4113 156.211 30.966 155.345 31.382C154.478 31.8153 153.369 32.032 152.017 32.032C150.179 32.032 148.697 31.6853 147.571 30.992C146.444 30.316 145.881 29.2933 145.881 27.924C145.881 26.7627 146.444 25.7573 147.571 24.908C147.224 24.752 146.921 24.5873 146.661 24.414C146.418 24.2407 146.201 24.0587 146.011 23.868V23.27L148.273 20.878C147.267 19.994 146.765 18.8587 146.765 17.472C146.765 16.6053 146.973 15.8167 147.389 15.106C147.822 14.3953 148.429 13.832 149.209 13.416C149.989 13 150.933 12.792 152.043 12.792C152.771 12.792 153.447 12.896 154.071 13.104H158.959V15.132L156.749 15.288C157.095 15.9467 157.269 16.6747 157.269 17.472C157.269 18.3387 157.061 19.1273 156.645 19.838C156.229 20.5487 155.622 21.112 154.825 21.528C154.045 21.944 153.117 22.152 152.043 22.152ZM152.043 19.604C152.719 19.604 153.273 19.422 153.707 19.058C154.157 18.694 154.383 18.174 154.383 17.498C154.383 16.822 154.157 16.302 153.707 15.938C153.273 15.574 152.719 15.392 152.043 15.392C151.332 15.392 150.76 15.574 150.327 15.938C149.893 16.302 149.677 16.822 149.677 17.498C149.677 18.174 149.893 18.694 150.327 19.058C150.76 19.422 151.332 19.604 152.043 19.604ZM148.923 27.586C148.923 28.2273 149.217 28.704 149.807 29.016C150.413 29.3453 151.15 29.51 152.017 29.51C152.849 29.51 153.525 29.3367 154.045 28.99C154.565 28.6607 154.825 28.21 154.825 27.638C154.825 27.17 154.651 26.78 154.305 26.468C153.975 26.156 153.308 25.9653 152.303 25.896C151.592 25.844 150.933 25.766 150.327 25.662C149.824 25.9393 149.46 26.2427 149.235 26.572C149.027 26.9013 148.923 27.2393 148.923 27.586ZM173.873 26.312C172.538 26.312 171.359 26.0867 170.337 25.636C169.314 25.168 168.508 24.5093 167.919 23.66C167.329 22.7933 167.026 21.7447 167.009 20.514H170.519C170.553 21.3633 170.857 22.0827 171.429 22.672C172.018 23.244 172.824 23.53 173.847 23.53C174.731 23.53 175.433 23.322 175.953 22.906C176.473 22.4727 176.733 21.9007 176.733 21.19C176.733 20.4447 176.499 19.864 176.031 19.448C175.58 19.032 174.973 18.694 174.211 18.434C173.448 18.174 172.633 17.8967 171.767 17.602C170.363 17.1167 169.288 16.4927 168.543 15.73C167.815 14.9673 167.451 13.9533 167.451 12.688C167.433 11.6133 167.685 10.6947 168.205 9.932C168.742 9.152 169.47 8.554 170.389 8.138C171.307 7.70467 172.365 7.488 173.561 7.488C174.774 7.488 175.84 7.70467 176.759 8.138C177.695 8.57133 178.423 9.178 178.943 9.958C179.48 10.738 179.766 11.6653 179.801 12.74H176.239C176.221 12.0987 175.97 11.5353 175.485 11.05C175.017 10.5473 174.358 10.296 173.509 10.296C172.781 10.2787 172.165 10.4607 171.663 10.842C171.177 11.206 170.935 11.7433 170.935 12.454C170.935 13.0607 171.125 13.546 171.507 13.91C171.888 14.2567 172.408 14.5513 173.067 14.794C173.725 15.0367 174.479 15.2967 175.329 15.574C176.23 15.886 177.053 16.25 177.799 16.666C178.544 17.082 179.142 17.6367 179.593 18.33C180.043 19.006 180.269 19.8813 180.269 20.956C180.269 21.9093 180.026 22.7933 179.541 23.608C179.055 24.4227 178.336 25.0813 177.383 25.584C176.429 26.0693 175.259 26.312 173.873 26.312ZM188.84 26C187.488 26 186.405 25.6707 185.59 25.012C184.776 24.3533 184.368 23.1833 184.368 21.502V15.886H182.158V13.104H184.368L184.758 9.646H187.696V13.104H191.18V15.886H187.696V21.528C187.696 22.152 187.826 22.5853 188.086 22.828C188.364 23.0533 188.832 23.166 189.49 23.166H191.102V26H188.84ZM198.874 26.312C197.262 26.312 196.014 25.8093 195.13 24.804C194.263 23.7987 193.83 22.3253 193.83 20.384V13.104H197.132V20.072C197.132 21.1813 197.357 22.0307 197.808 22.62C198.258 23.2093 198.969 23.504 199.94 23.504C200.858 23.504 201.612 23.1747 202.202 22.516C202.808 21.8573 203.112 20.9387 203.112 19.76V13.104H206.44V26H203.502L203.242 23.816C202.843 24.5787 202.262 25.1853 201.5 25.636C200.754 26.0867 199.879 26.312 198.874 26.312ZM215.784 26.312C214.571 26.312 213.487 26.0173 212.534 25.428C211.581 24.8387 210.827 24.0327 210.272 23.01C209.717 21.9873 209.44 20.826 209.44 19.526C209.44 18.226 209.717 17.0733 210.272 16.068C210.827 15.0453 211.581 14.248 212.534 13.676C213.487 13.0867 214.571 12.792 215.784 12.792C216.755 12.792 217.604 12.974 218.332 13.338C219.06 13.702 219.649 14.2133 220.1 14.872V7.28H223.428V26H220.464L220.1 24.154C219.684 24.726 219.129 25.2287 218.436 25.662C217.76 26.0953 216.876 26.312 215.784 26.312ZM216.486 23.4C217.561 23.4 218.436 23.0447 219.112 22.334C219.805 21.606 220.152 20.6787 220.152 19.552C220.152 18.4253 219.805 17.5067 219.112 16.796C218.436 16.068 217.561 15.704 216.486 15.704C215.429 15.704 214.553 16.0593 213.86 16.77C213.167 17.4807 212.82 18.3993 212.82 19.526C212.82 20.6527 213.167 21.58 213.86 22.308C214.553 23.036 215.429 23.4 216.486 23.4ZM228.611 11.102C228.004 11.102 227.502 10.92 227.103 10.556C226.722 10.192 226.531 9.73267 226.531 9.178C226.531 8.62333 226.722 8.17267 227.103 7.826C227.502 7.462 228.004 7.28 228.611 7.28C229.218 7.28 229.712 7.462 230.093 7.826C230.492 8.17267 230.691 8.62333 230.691 9.178C230.691 9.73267 230.492 10.192 230.093 10.556C229.712 10.92 229.218 11.102 228.611 11.102ZM226.947 26V13.104H230.275V26H226.947ZM239.937 26.312C238.689 26.312 237.562 26.026 236.557 25.454C235.569 24.882 234.78 24.0933 234.191 23.088C233.619 22.0653 233.333 20.8867 233.333 19.552C233.333 18.2173 233.627 17.0473 234.217 16.042C234.806 15.0193 235.595 14.222 236.583 13.65C237.588 13.078 238.715 12.792 239.963 12.792C241.193 12.792 242.303 13.078 243.291 13.65C244.296 14.222 245.085 15.0193 245.657 16.042C246.246 17.0473 246.541 18.2173 246.541 19.552C246.541 20.8867 246.246 22.0653 245.657 23.088C245.085 24.0933 244.296 24.882 243.291 25.454C242.285 26.026 241.167 26.312 239.937 26.312ZM239.937 23.426C240.803 23.426 241.557 23.1053 242.199 22.464C242.84 21.8053 243.161 20.8347 243.161 19.552C243.161 18.2693 242.84 17.3073 242.199 16.666C241.557 16.0073 240.812 15.678 239.963 15.678C239.079 15.678 238.316 16.0073 237.675 16.666C237.051 17.3073 236.739 18.2693 236.739 19.552C236.739 20.8347 237.051 21.8053 237.675 22.464C238.316 23.1053 239.07 23.426 239.937 23.426Z" fill="black"/>
<path d="M39.8611 0.68599C36.5124 -0.211098 32.961 0.0235773 29.7594 1.35352C26.5578 2.68346 23.8855 5.03411 22.1579 8.03988C20.4304 11.0456 19.7446 14.538 20.2071 17.9739C20.6697 21.4097 22.2546 24.5964 24.7155 27.0383L42.2305 9.52343C42.8843 8.86687 43.3541 8.05007 43.5929 7.1548C43.8317 6.25954 43.8311 5.31725 43.5912 4.42229C43.3512 3.52733 42.8804 2.71112 42.2258 2.05539C41.5711 1.39966 40.7557 0.927427 39.8611 0.68599Z" fill="url(#paint0_linear_504_18258)"/>
<path d="M26.715 36.2357C30.0645 37.1362 33.6178 36.9041 36.8217 35.5754C40.0257 34.2467 42.7004 31.896 44.4296 28.8893C46.1588 25.8826 46.8455 22.3886 46.3826 18.9511C45.9198 15.5136 44.3334 12.3256 41.8706 9.8833L24.3556 27.3982C23.6988 28.0528 23.226 28.8688 22.9848 29.7642C22.7436 30.6596 22.7425 31.6027 22.9817 32.4987C23.2209 33.3946 23.6919 34.2117 24.3473 34.8677C25.0026 35.5238 25.8193 35.9956 26.715 36.2357Z" fill="url(#paint1_linear_504_18258)"/>
<path style="mix-blend-mode:multiply" d="M41.8706 9.8833L24.3556 27.3982C23.6988 28.0528 23.226 28.8688 22.9848 29.7642C22.7436 30.6596 22.7425 31.6027 22.9817 32.4987C23.2209 33.3946 23.6919 34.2117 24.3473 34.8677C25.0026 35.5238 25.8193 35.9956 26.715 36.2357C28.5876 36.7355 30.5364 36.8846 32.4633 36.6755C24.7855 29.2877 41.8706 9.8833 41.8706 9.8833Z" fill="url(#paint2_linear_504_18258)"/>
<g style="mix-blend-mode:multiply">
<path d="M26.395 36.1458C23.9057 28.4481 38.8414 12.9426 41.4806 10.2833L24.3556 27.3984C23.7172 28.0328 23.2516 28.82 23.0031 29.685C22.7546 30.5501 22.7315 31.4643 22.9358 32.3408C23.1402 33.2174 23.5653 34.0271 24.1707 34.693C24.7762 35.359 25.5418 35.8591 26.395 36.1458Z" fill="url(#paint3_linear_504_18258)" style="mix-blend-mode:multiply"/>
</g>
<path style="mix-blend-mode:screen" d="M43.51 7.44403L24.7054 27.0283L42.2304 9.52343C42.8178 8.94317 43.2567 8.2299 43.51 7.44403Z" fill="url(#paint4_radial_504_18258)"/>
<path d="M19.2918 17.242C25.1411 16.4144 25.9099 12.0681 25.8106 8.27616C25.6344 1.55178 17.8824 0 13.6541 0H0V8.27616V18.4059V36.8978C5.19735 36.8978 16.0325 37.4151 19.2038 36.1219C22.0076 34.9786 26.621 33.2598 27.0438 26.6388C27.4667 20.0179 22.0227 18.0179 19.2918 17.5869V17.242Z" fill="url(#paint5_linear_504_18258)"/>
<path d="M12.5968 5.00018H6.16614V15.2592C7.57559 15.2879 10.923 15.2592 13.2134 15.2592C15.5037 15.2592 19.7673 14.3453 19.5559 9.65552C19.6264 5.93125 14.9458 5.00018 12.5968 5.00018Z" fill="white"/>
<path d="M13.1254 20.0869H6.07812V31.8115H13.1254C19.3974 31.9494 20.6718 27.9033 20.525 25.863C20.5955 21.1042 15.6213 20.0295 13.1254 20.0869Z" fill="white"/>
<path d="M23.344 17.242C29.1932 16.4144 29.962 12.0681 29.8627 8.27616C29.6865 1.55178 21.9345 0 17.7062 0H4.05212V8.27616V18.4059V36.8978C9.24947 36.8978 20.0846 37.4151 23.2559 36.1219C26.0598 34.9786 30.6731 33.2598 31.096 26.6388C31.5188 20.0179 26.0748 18.0179 23.344 17.5869V17.242Z" fill="url(#paint6_linear_504_18258)"/>
<path d="M16.6492 5.00018H10.2186V15.2592C11.6281 15.2879 14.9755 15.2592 17.2659 15.2592C19.5562 15.2592 23.8198 14.3453 23.6084 9.65552C23.6789 5.93125 18.9983 5.00018 16.6492 5.00018Z" fill="url(#paint7_linear_504_18258)"/>
<path d="M17.1779 20.0869H10.1306V31.8115H17.1779C23.4499 31.9494 24.7243 27.9033 24.5775 25.863C24.648 21.1042 19.6738 20.0295 17.1779 20.0869Z" fill="url(#paint8_linear_504_18258)"/>
<defs>
<linearGradient id="paint0_linear_504_18258" x1="36.1422" y1="-16.3591" x2="30.3239" y2="20.5902" gradientUnits="userSpaceOnUse">
<stop stop-color="#379237"/>
<stop offset="1" stop-color="#F0FF42"/>
</linearGradient>
<linearGradient id="paint1_linear_504_18258" x1="29.0143" y1="13.6322" x2="38.3416" y2="32.1668" gradientUnits="userSpaceOnUse">
<stop stop-color="#379237"/>
<stop offset="1" stop-color="#F0FF42"/>
</linearGradient>
<linearGradient id="paint2_linear_504_18258" x1="43.3901" y1="-3.23289" x2="25.7252" y2="37.7952" gradientUnits="userSpaceOnUse">
<stop stop-color="#F0FF42"/>
<stop offset="0.45" stop-color="#DED796"/>
<stop offset="0.83" stop-color="#F6F6E1"/>
<stop offset="1" stop-color="white"/>
</linearGradient>
<linearGradient id="paint3_linear_504_18258" x1="42.9695" y1="-2.33452" x2="26.1902" y2="37.3584" gradientUnits="userSpaceOnUse">
<stop stop-color="#F0FF42"/>
<stop offset="0.45" stop-color="#DED796"/>
<stop offset="0.83" stop-color="#F6F6E1"/>
<stop offset="1" stop-color="white"/>
</linearGradient>
<radialGradient id="paint4_radial_504_18258" cx="0" cy="0" r="1" gradientUnits="userSpaceOnUse" gradientTransform="translate(41.2207 32.1968) scale(27.2421 27.2421)">
<stop stop-color="#FFFF00"/>
<stop offset="1"/>
</radialGradient>
<linearGradient id="paint5_linear_504_18258" x1="5.02117" y1="-16.2937" x2="0.210397" y2="37.0893" gradientUnits="userSpaceOnUse">
<stop stop-color="#379237"/>
<stop offset="0.302083" stop-color="#54B435"/>
<stop offset="0.703125" stop-color="#82CD47"/>
<stop offset="1" stop-color="#F0FF42"/>
</linearGradient>
<linearGradient id="paint6_linear_504_18258" x1="17.5857" y1="0" x2="17.5857" y2="37" gradientUnits="userSpaceOnUse">
<stop stop-color="#F0FF42"/>
<stop offset="0.302083" stop-color="#82CD47"/>
<stop offset="0.703125" stop-color="#54B435"/>
<stop offset="1" stop-color="#379237"/>
</linearGradient>
<linearGradient id="paint7_linear_504_18258" x1="38.2315" y1="-3.70702" x2="14.0744" y2="19.3799" gradientUnits="userSpaceOnUse">
<stop offset="0.563439" stop-color="#54B435"/>
<stop offset="1" stop-color="#F0FF42"/>
</linearGradient>
<linearGradient id="paint8_linear_504_18258" x1="-5.98997" y1="6.12091" x2="27.0858" y2="28.2862" gradientUnits="userSpaceOnUse">
<stop offset="0.567708" stop-color="#54B435"/>
<stop offset="1" stop-color="#F0FF42"/>
</linearGradient>
</defs>
</svg>
